{"title":"Jurassic-World {2015} NEW TS XVID MP3-MRG","uid":12018819,"size":1817124926,"categoryP":"video","categoryS":"movies","magnet":"?xt=urn:btih:d62864dc9e04288016b4dfe98f10ffc8bcdc3214&amp;dn=Jurassic-World+%7B2015%7D+NEW+TS+XVID+MP3-MRG&amp;tr=udp%3A%2F%2Ftracker.openbittorrent.com%3A80&amp;tr=udp%3A%2F%2Fopen.demonii.com%3A1337&amp;tr=udp%3A%2F%2Ftracker.coppersurfer.tk%3A6969&amp;tr=udp%3A%2F%2Fexodus.desync.com%3A6969","seeders":5,"leechers":6,"uploader":"makintos13","files":18,"time":1434326711,"description":"screens:\n &lt;a href=&quot;\nhttp://imgmak.com/vm&quot; rel=&quot;nofollow&quot; target=&quot;_NEW&quot;&gt;\nhttp://imgmak.com/vm&lt;/a&gt;\n &lt;a href=&quot;\nhttp://imgmak.com/vu&quot; rel=&quot;nofollow&quot; target=&quot;_NEW&quot;&gt;\nhttp://imgmak.com/vu&lt;/a&gt;\n &lt;a href=&quot;\nhttp://imgmak.com/v5&quot; rel=&quot;nofollow&quot; target=&quot;_NEW&quot;&gt;\nhttp://imgmak.com/v5&lt;/a&gt;\n &lt;a href=&quot;\nhttp://imgmak.com/v1&quot; rel=&quot;nofollow&quot; target=&quot;_NEW&quot;&gt;\nhttp://imgmak.com/v1&lt;/a&gt;\n &lt;a href=&quot;\nhttp://imgmak.com/vU&quot; rel=&quot;nofollow&quot; target=&quot;_NEW&quot;&gt;\nhttp://imgmak.com/vU&lt;/a&gt;\n &lt;a href=&quot;\nhttp://imgmak.com/v3&quot; rel=&quot;nofollow&quot; target=&quot;_NEW&quot;&gt;\nhttp://imgmak.com/v3&lt;/a&gt;\n &lt;a href=&quot;\nhttp://imgmak.com/vG&quot; rel=&quot;nofollow&quot; target=&quot;_NEW&quot;&gt;\nhttp://imgmak.com/vG&lt;/a&gt;\n &lt;a href=&quot;\nhttp://imgmak.com/vH&quot; rel=&quot;nofollow&quot; target=&quot;_NEW&quot;&gt;\nhttp://imgmak.com/vH&lt;/a&gt;\n &lt;a href=&quot;\nhttp://imgmak.com/vv&quot; rel=&quot;nofollow&quot; target=&quot;_NEW&quot;&gt;\nhttp://imgmak.com/vv&lt;/a&gt;\n &lt;a href=&quot;\nhttp://imgmak.com/vy&quot; rel=&quot;nofollow&quot; target=&quot;_NEW&quot;&gt;\nhttp://imgmak.com/vy&lt;/a&gt;\n\n\n::::::::::::::\n\nJurassic-World {2015} NEW TS XVID MP3-MRG\n\nFormat                      : AVI\nFormat/Info                 : Audio Video Interleave\nFile size                   : 1.69 GiB\nDuration                    : 1h 55mn\nOverall bit rate            : 2 092 Kbps\nWriting library             : VirtualDub build 35491/release\n\nVideo\nID                          : 0\nFormat                      : MPEG-4 Visual\nFormat profile              : Advanced Simple@L5\nFormat settings, BVOP       : 2\nFormat settings, QPel       : No\nFormat settings, GMC        : 3 warppoints\nFormat settings, Matrix     : Default (H.263)\nMuxing mode                 : Packed bitstream\nCodec ID                    : XVID\nCodec ID/Hint               : XviD\nDuration                    : 1h 55mn\nBit rate                    : 1 954 Kbps\nWidth                       : 720 pixels\nHeight                      : 336 pixels\nDisplay aspect ratio        : 2.143\nFrame rate                  : 25.000 fps\nColor space                 : YUV\nChroma subsampling          : 4:2:0\nBit depth                   : 8 bits\nScan type                   : Progressive\nCompression mode            : Lossy\nBits/(Pixel*Frame)          : 0.323\nStream size                 : 1.58 GiB (93%)\nWriting library             : XviD 73\n\nAudio\nID                          : 1\nFormat                      : MPEG Audio\nFormat version              : Version 1\nFormat profile              : Layer 3\nCodec ID                    : 55\nCodec ID/Hint               : MP3\nDuration                    : 1h 55mn\nBit rate mode               : Constant\nBit rate                    : 128 Kbps\nChannel(s)                  : 2 channels\nSampling rate               : 48.0 KHz\nCompression mode            : Lossy\nStream size                 : 106 MiB (6%)\nAlignment                   : Split accross interleaves\nInterleave, duration        : 40 ms (1.00 video frame)\nInterleave, preload duratio : 500 ms\nWriting library             : LAMELAME_MAJOR_VERSI\n\nThnx to CM8 for audio...............:)","torrent":{"xt":"urn:btih:d62864dc9e04288016b4dfe98f10ffc8bcdc3214","amp;dn":"Jurassic-World+%7B2015%7D+NEW+TS+XVID+MP3-MRG","amp;tr":["udp%3A%2F%2Ftracker.openbittorrent.com%3A80","udp%3A%2F%2Fopen.demonii.com%3A1337","udp%3A%2F%2Ftracker.coppersurfer.tk%3A6969","udp%3A%2F%2Fexodus.desync.com%3A6969"],"infoHash":"d62864dc9e04288016b4dfe98f10ffc8bcdc3214","infoHashBuffer":{"type":"Buffer","data":[214,40,100,220,158,4,40,128,22,180,223,233,143,16,255,200,188,220,50,20]},"announce":[],"urlList":[]}}